<?xml version="1.0" standalone="no"?><!DOCTYPE svg PUBLIC "-//W3C//DTD SVG 1.1//EN" "http://www.w3.org/Graphics/SVG/1.1/DTD/svg11.dtd"><svg t="1595401161911" class="icon" viewBox="0 0 1024 1024" version="1.1" xmlns="http://www.w3.org/2000/svg" p-id="5385" xmlns:xlink="http://www.w3.org/1999/xlink" width="200" height="200"><defs><style type="text/css"></style></defs><path d="M937.472 416.768L547.84 91.648c-28.16-21.504-67.584-21.504-96.256-0.512l-399.36 324.608C30.72 431.616 22.016 458.752 30.72 484.352s31.232 41.984 58.368 41.984h86.016v346.112c0 44.032 35.84 79.872 79.872 79.872h483.328c44.032 0 79.872-35.84 79.872-79.872v-346.112h81.408c26.624 0 49.664-16.384 58.368-41.984 9.216-24.576 1.024-51.712-20.48-67.584z m-151.552 43.52c-18.432 0-33.28 14.848-33.28 33.28v379.392c0 7.168-6.144 13.312-13.312 13.312H255.488c-7.168 0-13.312-6.144-13.312-13.312V493.568c0-18.432-14.848-33.28-33.28-33.28H105.472l386.56-315.392c4.608-3.584 11.264-3.584 15.872 0l376.832 315.392h-98.816z" fill="#3E3A39" p-id="5386"></path><path d="M636.928 788.48c18.432 0 33.28-14.848 33.28-33.28v-194.56c0-18.432-14.848-33.28-33.28-33.28s-33.28 14.848-33.28 33.28v194.56c0 18.432 14.848 33.28 33.28 33.28z" fill="#FA7268" p-id="5387"></path></svg>