<?xml version="1.0" standalone="no"?><!DOCTYPE svg PUBLIC "-//W3C//DTD SVG 1.1//EN" "http://www.w3.org/Graphics/SVG/1.1/DTD/svg11.dtd"><svg t="1595401108327" class="icon" viewBox="0 0 1024 1024" version="1.1" xmlns="http://www.w3.org/2000/svg" p-id="1684" xmlns:xlink="http://www.w3.org/1999/xlink" width="200" height="200"><defs><style type="text/css"></style></defs><path d="M500.224 188.928c-18.432 0-33.28 14.848-33.28 33.28s14.848 33.28 33.28 33.28c60.928 0 110.592 49.664 110.592 110.592 0 18.432 14.848 33.28 33.28 33.28s33.28-14.848 33.28-33.28c0.512-97.28-79.36-177.152-177.152-177.152z" fill="#FA7268" p-id="1685"></path><path d="M720.896 565.248c52.224-53.248 84.48-125.952 84.48-206.336 0-162.304-132.096-294.4-294.4-294.4S216.576 196.608 216.576 358.912c0 80.384 32.256 153.088 84.48 206.336-60.416 27.648-114.176 70.656-154.624 123.904C94.72 757.76 67.584 839.68 67.584 925.184c0 18.432 14.848 33.28 33.28 33.28s33.28-14.848 33.28-33.28c0-140.8 93.184-268.8 227.328-312.32 43.52 25.6 94.208 40.448 148.48 40.448 54.272 0 104.96-14.848 148.992-40.448 134.656 43.52 227.84 170.496 227.84 312.32 0 18.432 14.848 33.28 33.28 33.28s33.28-14.848 33.28-33.28c1.024-155.648-92.672-296.96-232.448-359.936zM283.136 358.912c0-125.44 102.4-227.84 227.84-227.84s227.84 102.4 227.84 227.84-102.4 227.84-227.84 227.84-227.84-101.888-227.84-227.84z" fill="#3E3A39" p-id="1686"></path></svg>